<?xml version="1.0" encoding="utf-8"?>
<!-- Generator: Adobe Illustrator 22.1.0, SVG Export Plug-In . SVG Version: 6.00 Build 0)  -->
<svg version="1.1" id="图层_1" xmlns="http://www.w3.org/2000/svg" xmlns:xlink="http://www.w3.org/1999/xlink" x="0px" y="0px"
	 viewBox="0 0 200 200" style="enable-background:new 0 0 200 200;" xml:space="preserve">
<style type="text/css">
	.st0{fill:#F1948A;}
	.st1{fill:#F7DC6F;}
	.st2{fill:#82E0AA;}
	.st3{fill:#85C1E9;}
</style>
<path class="st0" d="M0,0v43.8h175V0H0z M31.3,31.3H12.5V12.5h18.8V31.3L31.3,31.3z M58.7,31.3H40V12.5h18.7V31.3z M87.5,31.3H68.8
	V12.5h18.8V31.3L87.5,31.3z"/>
<path class="st1" d="M0,56.3V100h175V56.3H0z M31.3,86.3H12.5V67.5h18.8V86.3L31.3,86.3z M58.7,86.3H40V67.5h18.7V86.3z M87.5,86.3
	H68.8V67.5h18.8V86.3L87.5,86.3z"/>
<path class="st2" d="M146.3,130c-3.8,0-6.3,2.5-6.3,6.3v27.5c0,3.8,2.5,6.3,6.3,6.3h25c3.8,0,6.3-2.5,6.3-6.3c0-3.8-2.5-6.3-6.3-6.3
	h-18.8v-21.3C152.5,132.5,150,130,146.3,130z"/>
<path class="st3" d="M152.5,105c-8.8,0-16.3,2.5-22.5,6.3H0V155h102.5l8.7,11.2l17.5-22.5l-11.2,0c3.8-15,17.5-26.3,33.8-26.3
	c20,0,35,16.3,35,35c0,20-16.3,35-35,35c-10,0-20-5-27.5-12.5c-2.5-2.5-6.3-2.5-8.7-1.3c-2.5,2.5-2.5,6.3-1.3,8.8
	c8.8,10,22.5,16.3,36.3,16.3c26.3,0,47.5-21.3,47.5-47.5C200,126.3,178.8,105,152.5,105z M31.3,141.3L31.3,141.3H12.5v-18.8h18.8
	V141.3z M58.7,141.3H40v-18.8h18.7V141.3z M87.5,141.3H68.8l0,0v-18.8h18.8V141.3L87.5,141.3z"/>
</svg>
